<mxfile host="app.diagrams.net" modified="2021-02-08T22:33:36.231Z" agent="5.0 (Macintosh; Intel Mac OS X 10_13_6) AppleWebKit/537.36 (KHTML, like Gecko) Chrome/88.0.4324.146 Safari/537.36" etag="Zv3IxYN9Wsies9pc2Vrl" version="14.3.0" type="github">
  <diagram id="R2lEEEUBdFMjLlhIrx00" name="Page-1">
    <mxGraphModel dx="1098" dy="689" grid="1" gridSize="10" guides="1" tooltips="1" connect="1" arrows="1" fold="1" page="1" pageScale="1" pageWidth="850" pageHeight="1100" math="0" shadow="0" extFonts="Permanent Marker^https://fonts.googleapis.com/css?family=Permanent+Marker">
      <root>
        <mxCell id="0" />
        <mxCell id="1" parent="0" />
        <mxCell id="LBTetcbzAzT7NRiAr88A-1" value="Customer" style="shape=table;startSize=30;container=1;collapsible=1;childLayout=tableLayout;fixedRows=1;rowLines=0;fontStyle=1;align=center;resizeLast=1;" vertex="1" parent="1">
          <mxGeometry x="30" y="110" width="180" height="160" as="geometry" />
        </mxCell>
        <mxCell id="LBTetcbzAzT7NRiAr88A-2" value="" style="shape=partialRectangle;collapsible=0;dropTarget=0;pointerEvents=0;fillColor=none;top=0;left=0;bottom=1;right=0;points=[[0,0.5],[1,0.5]];portConstraint=eastwest;" vertex="1" parent="LBTetcbzAzT7NRiAr88A-1">
          <mxGeometry y="30" width="180" height="30" as="geometry" />
        </mxCell>
        <mxCell id="LBTetcbzAzT7NRiAr88A-3" value="PK" style="shape=partialRectangle;connectable=0;fillColor=none;top=0;left=0;bottom=0;right=0;fontStyle=1;overflow=hidden;" vertex="1" parent="LBTetcbzAzT7NRiAr88A-2">
          <mxGeometry width="30" height="30" as="geometry" />
        </mxCell>
        <mxCell id="LBTetcbzAzT7NRiAr88A-4" value="ID" style="shape=partialRectangle;connectable=0;fillColor=none;top=0;left=0;bottom=0;right=0;align=left;spacingLeft=6;fontStyle=5;overflow=hidden;" vertex="1" parent="LBTetcbzAzT7NRiAr88A-2">
          <mxGeometry x="30" width="150" height="30" as="geometry" />
        </mxCell>
        <mxCell id="LBTetcbzAzT7NRiAr88A-5" value="" style="shape=partialRectangle;collapsible=0;dropTarget=0;pointerEvents=0;fillColor=none;top=0;left=0;bottom=0;right=0;points=[[0,0.5],[1,0.5]];portConstraint=eastwest;" vertex="1" parent="LBTetcbzAzT7NRiAr88A-1">
          <mxGeometry y="60" width="180" height="30" as="geometry" />
        </mxCell>
        <mxCell id="LBTetcbzAzT7NRiAr88A-6" value="" style="shape=partialRectangle;connectable=0;fillColor=none;top=0;left=0;bottom=0;right=0;editable=1;overflow=hidden;" vertex="1" parent="LBTetcbzAzT7NRiAr88A-5">
          <mxGeometry width="30" height="30" as="geometry" />
        </mxCell>
        <mxCell id="LBTetcbzAzT7NRiAr88A-7" value="username" style="shape=partialRectangle;connectable=0;fillColor=none;top=0;left=0;bottom=0;right=0;align=left;spacingLeft=6;overflow=hidden;" vertex="1" parent="LBTetcbzAzT7NRiAr88A-5">
          <mxGeometry x="30" width="150" height="30" as="geometry" />
        </mxCell>
        <mxCell id="LBTetcbzAzT7NRiAr88A-8" value="" style="shape=partialRectangle;collapsible=0;dropTarget=0;pointerEvents=0;fillColor=none;top=0;left=0;bottom=0;right=0;points=[[0,0.5],[1,0.5]];portConstraint=eastwest;" vertex="1" parent="LBTetcbzAzT7NRiAr88A-1">
          <mxGeometry y="90" width="180" height="30" as="geometry" />
        </mxCell>
        <mxCell id="LBTetcbzAzT7NRiAr88A-9" value="" style="shape=partialRectangle;connectable=0;fillColor=none;top=0;left=0;bottom=0;right=0;editable=1;overflow=hidden;" vertex="1" parent="LBTetcbzAzT7NRiAr88A-8">
          <mxGeometry width="30" height="30" as="geometry" />
        </mxCell>
        <mxCell id="LBTetcbzAzT7NRiAr88A-10" value="password(Hash)" style="shape=partialRectangle;connectable=0;fillColor=none;top=0;left=0;bottom=0;right=0;align=left;spacingLeft=6;overflow=hidden;" vertex="1" parent="LBTetcbzAzT7NRiAr88A-8">
          <mxGeometry x="30" width="150" height="30" as="geometry" />
        </mxCell>
        <mxCell id="LBTetcbzAzT7NRiAr88A-11" value="" style="shape=partialRectangle;collapsible=0;dropTarget=0;pointerEvents=0;fillColor=none;top=0;left=0;bottom=0;right=0;points=[[0,0.5],[1,0.5]];portConstraint=eastwest;" vertex="1" parent="LBTetcbzAzT7NRiAr88A-1">
          <mxGeometry y="120" width="180" height="30" as="geometry" />
        </mxCell>
        <mxCell id="LBTetcbzAzT7NRiAr88A-12" value="" style="shape=partialRectangle;connectable=0;fillColor=none;top=0;left=0;bottom=0;right=0;editable=1;overflow=hidden;" vertex="1" parent="LBTetcbzAzT7NRiAr88A-11">
          <mxGeometry width="30" height="30" as="geometry" />
        </mxCell>
        <mxCell id="LBTetcbzAzT7NRiAr88A-13" value="email" style="shape=partialRectangle;connectable=0;fillColor=none;top=0;left=0;bottom=0;right=0;align=left;spacingLeft=6;overflow=hidden;" vertex="1" parent="LBTetcbzAzT7NRiAr88A-11">
          <mxGeometry x="30" width="150" height="30" as="geometry" />
        </mxCell>
        <mxCell id="LBTetcbzAzT7NRiAr88A-14" value="Reservation" style="shape=table;startSize=30;container=1;collapsible=1;childLayout=tableLayout;fixedRows=1;rowLines=0;fontStyle=1;align=center;resizeLast=1;" vertex="1" parent="1">
          <mxGeometry x="300" y="30" width="180" height="190" as="geometry" />
        </mxCell>
        <mxCell id="LBTetcbzAzT7NRiAr88A-15" value="" style="shape=partialRectangle;collapsible=0;dropTarget=0;pointerEvents=0;fillColor=none;top=0;left=0;bottom=1;right=0;points=[[0,0.5],[1,0.5]];portConstraint=eastwest;" vertex="1" parent="LBTetcbzAzT7NRiAr88A-14">
          <mxGeometry y="30" width="180" height="30" as="geometry" />
        </mxCell>
        <mxCell id="LBTetcbzAzT7NRiAr88A-16" value="PK" style="shape=partialRectangle;connectable=0;fillColor=none;top=0;left=0;bottom=0;right=0;fontStyle=1;overflow=hidden;" vertex="1" parent="LBTetcbzAzT7NRiAr88A-15">
          <mxGeometry width="30" height="30" as="geometry" />
        </mxCell>
        <mxCell id="LBTetcbzAzT7NRiAr88A-17" value="ID" style="shape=partialRectangle;connectable=0;fillColor=none;top=0;left=0;bottom=0;right=0;align=left;spacingLeft=6;fontStyle=5;overflow=hidden;" vertex="1" parent="LBTetcbzAzT7NRiAr88A-15">
          <mxGeometry x="30" width="150" height="30" as="geometry" />
        </mxCell>
        <mxCell id="LBTetcbzAzT7NRiAr88A-18" value="" style="shape=partialRectangle;collapsible=0;dropTarget=0;pointerEvents=0;fillColor=none;top=0;left=0;bottom=0;right=0;points=[[0,0.5],[1,0.5]];portConstraint=eastwest;" vertex="1" parent="LBTetcbzAzT7NRiAr88A-14">
          <mxGeometry y="60" width="180" height="30" as="geometry" />
        </mxCell>
        <mxCell id="LBTetcbzAzT7NRiAr88A-19" value="" style="shape=partialRectangle;connectable=0;fillColor=none;top=0;left=0;bottom=0;right=0;editable=1;overflow=hidden;" vertex="1" parent="LBTetcbzAzT7NRiAr88A-18">
          <mxGeometry width="30" height="30" as="geometry" />
        </mxCell>
        <mxCell id="LBTetcbzAzT7NRiAr88A-20" value="customerID" style="shape=partialRectangle;connectable=0;fillColor=none;top=0;left=0;bottom=0;right=0;align=left;spacingLeft=6;overflow=hidden;" vertex="1" parent="LBTetcbzAzT7NRiAr88A-18">
          <mxGeometry x="30" width="150" height="30" as="geometry" />
        </mxCell>
        <mxCell id="LBTetcbzAzT7NRiAr88A-21" value="" style="shape=partialRectangle;collapsible=0;dropTarget=0;pointerEvents=0;fillColor=none;top=0;left=0;bottom=0;right=0;points=[[0,0.5],[1,0.5]];portConstraint=eastwest;" vertex="1" parent="LBTetcbzAzT7NRiAr88A-14">
          <mxGeometry y="90" width="180" height="30" as="geometry" />
        </mxCell>
        <mxCell id="LBTetcbzAzT7NRiAr88A-22" value="" style="shape=partialRectangle;connectable=0;fillColor=none;top=0;left=0;bottom=0;right=0;editable=1;overflow=hidden;" vertex="1" parent="LBTetcbzAzT7NRiAr88A-21">
          <mxGeometry width="30" height="30" as="geometry" />
        </mxCell>
        <mxCell id="LBTetcbzAzT7NRiAr88A-23" value="screeningID" style="shape=partialRectangle;connectable=0;fillColor=none;top=0;left=0;bottom=0;right=0;align=left;spacingLeft=6;overflow=hidden;" vertex="1" parent="LBTetcbzAzT7NRiAr88A-21">
          <mxGeometry x="30" width="150" height="30" as="geometry" />
        </mxCell>
        <mxCell id="LBTetcbzAzT7NRiAr88A-24" value="" style="shape=partialRectangle;collapsible=0;dropTarget=0;pointerEvents=0;fillColor=none;top=0;left=0;bottom=0;right=0;points=[[0,0.5],[1,0.5]];portConstraint=eastwest;" vertex="1" parent="LBTetcbzAzT7NRiAr88A-14">
          <mxGeometry y="120" width="180" height="30" as="geometry" />
        </mxCell>
        <mxCell id="LBTetcbzAzT7NRiAr88A-25" value="" style="shape=partialRectangle;connectable=0;fillColor=none;top=0;left=0;bottom=0;right=0;editable=1;overflow=hidden;" vertex="1" parent="LBTetcbzAzT7NRiAr88A-24">
          <mxGeometry width="30" height="30" as="geometry" />
        </mxCell>
        <mxCell id="LBTetcbzAzT7NRiAr88A-26" value="Set of SeatsÂ " style="shape=partialRectangle;connectable=0;fillColor=none;top=0;left=0;bottom=0;right=0;align=left;spacingLeft=6;overflow=hidden;" vertex="1" parent="LBTetcbzAzT7NRiAr88A-24">
          <mxGeometry x="30" width="150" height="30" as="geometry" />
        </mxCell>
        <mxCell id="LBTetcbzAzT7NRiAr88A-27" style="shape=partialRectangle;collapsible=0;dropTarget=0;pointerEvents=0;fillColor=none;top=0;left=0;bottom=0;right=0;points=[[0,0.5],[1,0.5]];portConstraint=eastwest;" vertex="1" parent="LBTetcbzAzT7NRiAr88A-14">
          <mxGeometry y="150" width="180" height="30" as="geometry" />
        </mxCell>
        <mxCell id="LBTetcbzAzT7NRiAr88A-28" style="shape=partialRectangle;connectable=0;fillColor=none;top=0;left=0;bottom=0;right=0;editable=1;overflow=hidden;" vertex="1" parent="LBTetcbzAzT7NRiAr88A-27">
          <mxGeometry width="30" height="30" as="geometry" />
        </mxCell>
        <mxCell id="LBTetcbzAzT7NRiAr88A-29" value="amount of order $$" style="shape=partialRectangle;connectable=0;fillColor=none;top=0;left=0;bottom=0;right=0;align=left;spacingLeft=6;overflow=hidden;" vertex="1" parent="LBTetcbzAzT7NRiAr88A-27">
          <mxGeometry x="30" width="150" height="30" as="geometry" />
        </mxCell>
        <mxCell id="LBTetcbzAzT7NRiAr88A-30" value="Seat" style="shape=table;startSize=30;container=1;collapsible=1;childLayout=tableLayout;fixedRows=1;rowLines=0;fontStyle=1;align=center;resizeLast=1;" vertex="1" parent="1">
          <mxGeometry x="640" y="130" width="180" height="190" as="geometry" />
        </mxCell>
        <mxCell id="LBTetcbzAzT7NRiAr88A-31" value="" style="shape=partialRectangle;collapsible=0;dropTarget=0;pointerEvents=0;fillColor=none;top=0;left=0;bottom=1;right=0;points=[[0,0.5],[1,0.5]];portConstraint=eastwest;" vertex="1" parent="LBTetcbzAzT7NRiAr88A-30">
          <mxGeometry y="30" width="180" height="30" as="geometry" />
        </mxCell>
        <mxCell id="LBTetcbzAzT7NRiAr88A-32" value="PK" style="shape=partialRectangle;connectable=0;fillColor=none;top=0;left=0;bottom=0;right=0;fontStyle=1;overflow=hidden;" vertex="1" parent="LBTetcbzAzT7NRiAr88A-31">
          <mxGeometry width="30" height="30" as="geometry" />
        </mxCell>
        <mxCell id="LBTetcbzAzT7NRiAr88A-33" value="ID" style="shape=partialRectangle;connectable=0;fillColor=none;top=0;left=0;bottom=0;right=0;align=left;spacingLeft=6;fontStyle=5;overflow=hidden;" vertex="1" parent="LBTetcbzAzT7NRiAr88A-31">
          <mxGeometry x="30" width="150" height="30" as="geometry" />
        </mxCell>
        <mxCell id="LBTetcbzAzT7NRiAr88A-34" value="" style="shape=partialRectangle;collapsible=0;dropTarget=0;pointerEvents=0;fillColor=none;top=0;left=0;bottom=0;right=0;points=[[0,0.5],[1,0.5]];portConstraint=eastwest;" vertex="1" parent="LBTetcbzAzT7NRiAr88A-30">
          <mxGeometry y="60" width="180" height="30" as="geometry" />
        </mxCell>
        <mxCell id="LBTetcbzAzT7NRiAr88A-35" value="" style="shape=partialRectangle;connectable=0;fillColor=none;top=0;left=0;bottom=0;right=0;editable=1;overflow=hidden;" vertex="1" parent="LBTetcbzAzT7NRiAr88A-34">
          <mxGeometry width="30" height="30" as="geometry" />
        </mxCell>
        <mxCell id="LBTetcbzAzT7NRiAr88A-36" value="seatNumber" style="shape=partialRectangle;connectable=0;fillColor=none;top=0;left=0;bottom=0;right=0;align=left;spacingLeft=6;overflow=hidden;" vertex="1" parent="LBTetcbzAzT7NRiAr88A-34">
          <mxGeometry x="30" width="150" height="30" as="geometry" />
        </mxCell>
        <mxCell id="LBTetcbzAzT7NRiAr88A-37" value="" style="shape=partialRectangle;collapsible=0;dropTarget=0;pointerEvents=0;fillColor=none;top=0;left=0;bottom=0;right=0;points=[[0,0.5],[1,0.5]];portConstraint=eastwest;" vertex="1" parent="LBTetcbzAzT7NRiAr88A-30">
          <mxGeometry y="90" width="180" height="30" as="geometry" />
        </mxCell>
        <mxCell id="LBTetcbzAzT7NRiAr88A-38" value="" style="shape=partialRectangle;connectable=0;fillColor=none;top=0;left=0;bottom=0;right=0;editable=1;overflow=hidden;" vertex="1" parent="LBTetcbzAzT7NRiAr88A-37">
          <mxGeometry width="30" height="30" as="geometry" />
        </mxCell>
        <mxCell id="LBTetcbzAzT7NRiAr88A-39" value="rowName" style="shape=partialRectangle;connectable=0;fillColor=none;top=0;left=0;bottom=0;right=0;align=left;spacingLeft=6;overflow=hidden;" vertex="1" parent="LBTetcbzAzT7NRiAr88A-37">
          <mxGeometry x="30" width="150" height="30" as="geometry" />
        </mxCell>
        <mxCell id="LBTetcbzAzT7NRiAr88A-40" value="" style="shape=partialRectangle;collapsible=0;dropTarget=0;pointerEvents=0;fillColor=none;top=0;left=0;bottom=0;right=0;points=[[0,0.5],[1,0.5]];portConstraint=eastwest;" vertex="1" parent="LBTetcbzAzT7NRiAr88A-30">
          <mxGeometry y="120" width="180" height="30" as="geometry" />
        </mxCell>
        <mxCell id="LBTetcbzAzT7NRiAr88A-41" value="" style="shape=partialRectangle;connectable=0;fillColor=none;top=0;left=0;bottom=0;right=0;editable=1;overflow=hidden;" vertex="1" parent="LBTetcbzAzT7NRiAr88A-40">
          <mxGeometry width="30" height="30" as="geometry" />
        </mxCell>
        <mxCell id="LBTetcbzAzT7NRiAr88A-42" value="seatPriceÂ " style="shape=partialRectangle;connectable=0;fillColor=none;top=0;left=0;bottom=0;right=0;align=left;spacingLeft=6;overflow=hidden;" vertex="1" parent="LBTetcbzAzT7NRiAr88A-40">
          <mxGeometry x="30" width="150" height="30" as="geometry" />
        </mxCell>
        <mxCell id="LBTetcbzAzT7NRiAr88A-43" style="shape=partialRectangle;collapsible=0;dropTarget=0;pointerEvents=0;fillColor=none;top=0;left=0;bottom=0;right=0;points=[[0,0.5],[1,0.5]];portConstraint=eastwest;" vertex="1" parent="LBTetcbzAzT7NRiAr88A-30">
          <mxGeometry y="150" width="180" height="30" as="geometry" />
        </mxCell>
        <mxCell id="LBTetcbzAzT7NRiAr88A-44" style="shape=partialRectangle;connectable=0;fillColor=none;top=0;left=0;bottom=0;right=0;editable=1;overflow=hidden;" vertex="1" parent="LBTetcbzAzT7NRiAr88A-43">
          <mxGeometry width="30" height="30" as="geometry" />
        </mxCell>
        <mxCell id="LBTetcbzAzT7NRiAr88A-45" value="Auditorium auditorium" style="shape=partialRectangle;connectable=0;fillColor=none;top=0;left=0;bottom=0;right=0;align=left;spacingLeft=6;overflow=hidden;" vertex="1" parent="LBTetcbzAzT7NRiAr88A-43">
          <mxGeometry x="30" width="150" height="30" as="geometry" />
        </mxCell>
        <mxCell id="LBTetcbzAzT7NRiAr88A-46" value="Auditorium" style="shape=table;startSize=30;container=1;collapsible=1;childLayout=tableLayout;fixedRows=1;rowLines=0;fontStyle=1;align=center;resizeLast=1;" vertex="1" parent="1">
          <mxGeometry x="600" y="350" width="180" height="100" as="geometry" />
        </mxCell>
        <mxCell id="LBTetcbzAzT7NRiAr88A-47" value="" style="shape=partialRectangle;collapsible=0;dropTarget=0;pointerEvents=0;fillColor=none;top=0;left=0;bottom=1;right=0;points=[[0,0.5],[1,0.5]];portConstraint=eastwest;" vertex="1" parent="LBTetcbzAzT7NRiAr88A-46">
          <mxGeometry y="30" width="180" height="30" as="geometry" />
        </mxCell>
        <mxCell id="LBTetcbzAzT7NRiAr88A-48" value="PK" style="shape=partialRectangle;connectable=0;fillColor=none;top=0;left=0;bottom=0;right=0;fontStyle=1;overflow=hidden;" vertex="1" parent="LBTetcbzAzT7NRiAr88A-47">
          <mxGeometry width="30" height="30" as="geometry" />
        </mxCell>
        <mxCell id="LBTetcbzAzT7NRiAr88A-49" value="ID" style="shape=partialRectangle;connectable=0;fillColor=none;top=0;left=0;bottom=0;right=0;align=left;spacingLeft=6;fontStyle=5;overflow=hidden;" vertex="1" parent="LBTetcbzAzT7NRiAr88A-47">
          <mxGeometry x="30" width="150" height="30" as="geometry" />
        </mxCell>
        <mxCell id="LBTetcbzAzT7NRiAr88A-50" value="" style="shape=partialRectangle;collapsible=0;dropTarget=0;pointerEvents=0;fillColor=none;top=0;left=0;bottom=0;right=0;points=[[0,0.5],[1,0.5]];portConstraint=eastwest;" vertex="1" parent="LBTetcbzAzT7NRiAr88A-46">
          <mxGeometry y="60" width="180" height="30" as="geometry" />
        </mxCell>
        <mxCell id="LBTetcbzAzT7NRiAr88A-51" value="" style="shape=partialRectangle;connectable=0;fillColor=none;top=0;left=0;bottom=0;right=0;editable=1;overflow=hidden;" vertex="1" parent="LBTetcbzAzT7NRiAr88A-50">
          <mxGeometry width="30" height="30" as="geometry" />
        </mxCell>
        <mxCell id="LBTetcbzAzT7NRiAr88A-52" value="auditoriumNumber" style="shape=partialRectangle;connectable=0;fillColor=none;top=0;left=0;bottom=0;right=0;align=left;spacingLeft=6;overflow=hidden;" vertex="1" parent="LBTetcbzAzT7NRiAr88A-50">
          <mxGeometry x="30" width="150" height="30" as="geometry" />
        </mxCell>
        <mxCell id="LBTetcbzAzT7NRiAr88A-59" value="Movie" style="shape=table;startSize=30;container=1;collapsible=1;childLayout=tableLayout;fixedRows=1;rowLines=0;fontStyle=1;align=center;resizeLast=1;" vertex="1" parent="1">
          <mxGeometry x="110" y="320" width="180" height="130" as="geometry" />
        </mxCell>
        <mxCell id="LBTetcbzAzT7NRiAr88A-60" value="" style="shape=partialRectangle;collapsible=0;dropTarget=0;pointerEvents=0;fillColor=none;top=0;left=0;bottom=1;right=0;points=[[0,0.5],[1,0.5]];portConstraint=eastwest;" vertex="1" parent="LBTetcbzAzT7NRiAr88A-59">
          <mxGeometry y="30" width="180" height="30" as="geometry" />
        </mxCell>
        <mxCell id="LBTetcbzAzT7NRiAr88A-61" value="PK" style="shape=partialRectangle;connectable=0;fillColor=none;top=0;left=0;bottom=0;right=0;fontStyle=1;overflow=hidden;" vertex="1" parent="LBTetcbzAzT7NRiAr88A-60">
          <mxGeometry width="30" height="30" as="geometry" />
        </mxCell>
        <mxCell id="LBTetcbzAzT7NRiAr88A-62" value="ID" style="shape=partialRectangle;connectable=0;fillColor=none;top=0;left=0;bottom=0;right=0;align=left;spacingLeft=6;fontStyle=5;overflow=hidden;" vertex="1" parent="LBTetcbzAzT7NRiAr88A-60">
          <mxGeometry x="30" width="150" height="30" as="geometry" />
        </mxCell>
        <mxCell id="LBTetcbzAzT7NRiAr88A-63" value="" style="shape=partialRectangle;collapsible=0;dropTarget=0;pointerEvents=0;fillColor=none;top=0;left=0;bottom=0;right=0;points=[[0,0.5],[1,0.5]];portConstraint=eastwest;" vertex="1" parent="LBTetcbzAzT7NRiAr88A-59">
          <mxGeometry y="60" width="180" height="30" as="geometry" />
        </mxCell>
        <mxCell id="LBTetcbzAzT7NRiAr88A-64" value="" style="shape=partialRectangle;connectable=0;fillColor=none;top=0;left=0;bottom=0;right=0;editable=1;overflow=hidden;" vertex="1" parent="LBTetcbzAzT7NRiAr88A-63">
          <mxGeometry width="30" height="30" as="geometry" />
        </mxCell>
        <mxCell id="LBTetcbzAzT7NRiAr88A-65" value="movieName" style="shape=partialRectangle;connectable=0;fillColor=none;top=0;left=0;bottom=0;right=0;align=left;spacingLeft=6;overflow=hidden;" vertex="1" parent="LBTetcbzAzT7NRiAr88A-63">
          <mxGeometry x="30" width="150" height="30" as="geometry" />
        </mxCell>
        <mxCell id="LBTetcbzAzT7NRiAr88A-66" value="" style="shape=partialRectangle;collapsible=0;dropTarget=0;pointerEvents=0;fillColor=none;top=0;left=0;bottom=0;right=0;points=[[0,0.5],[1,0.5]];portConstraint=eastwest;" vertex="1" parent="LBTetcbzAzT7NRiAr88A-59">
          <mxGeometry y="90" width="180" height="30" as="geometry" />
        </mxCell>
        <mxCell id="LBTetcbzAzT7NRiAr88A-67" value="" style="shape=partialRectangle;connectable=0;fillColor=none;top=0;left=0;bottom=0;right=0;editable=1;overflow=hidden;" vertex="1" parent="LBTetcbzAzT7NRiAr88A-66">
          <mxGeometry width="30" height="30" as="geometry" />
        </mxCell>
        <mxCell id="LBTetcbzAzT7NRiAr88A-68" value="movieDescriptionÂ " style="shape=partialRectangle;connectable=0;fillColor=none;top=0;left=0;bottom=0;right=0;align=left;spacingLeft=6;overflow=hidden;" vertex="1" parent="LBTetcbzAzT7NRiAr88A-66">
          <mxGeometry x="30" width="150" height="30" as="geometry" />
        </mxCell>
        <mxCell id="LBTetcbzAzT7NRiAr88A-72" value="ScreeningsÂ " style="shape=table;startSize=30;container=1;collapsible=1;childLayout=tableLayout;fixedRows=1;rowLines=0;fontStyle=1;align=center;resizeLast=1;" vertex="1" parent="1">
          <mxGeometry x="335" y="310" width="180" height="160" as="geometry" />
        </mxCell>
        <mxCell id="LBTetcbzAzT7NRiAr88A-73" value="" style="shape=partialRectangle;collapsible=0;dropTarget=0;pointerEvents=0;fillColor=none;top=0;left=0;bottom=1;right=0;points=[[0,0.5],[1,0.5]];portConstraint=eastwest;" vertex="1" parent="LBTetcbzAzT7NRiAr88A-72">
          <mxGeometry y="30" width="180" height="30" as="geometry" />
        </mxCell>
        <mxCell id="LBTetcbzAzT7NRiAr88A-74" value="PK" style="shape=partialRectangle;connectable=0;fillColor=none;top=0;left=0;bottom=0;right=0;fontStyle=1;overflow=hidden;" vertex="1" parent="LBTetcbzAzT7NRiAr88A-73">
          <mxGeometry width="30" height="30" as="geometry" />
        </mxCell>
        <mxCell id="LBTetcbzAzT7NRiAr88A-75" value="ID" style="shape=partialRectangle;connectable=0;fillColor=none;top=0;left=0;bottom=0;right=0;align=left;spacingLeft=6;fontStyle=5;overflow=hidden;" vertex="1" parent="LBTetcbzAzT7NRiAr88A-73">
          <mxGeometry x="30" width="150" height="30" as="geometry" />
        </mxCell>
        <mxCell id="LBTetcbzAzT7NRiAr88A-76" value="" style="shape=partialRectangle;collapsible=0;dropTarget=0;pointerEvents=0;fillColor=none;top=0;left=0;bottom=0;right=0;points=[[0,0.5],[1,0.5]];portConstraint=eastwest;" vertex="1" parent="LBTetcbzAzT7NRiAr88A-72">
          <mxGeometry y="60" width="180" height="30" as="geometry" />
        </mxCell>
        <mxCell id="LBTetcbzAzT7NRiAr88A-77" value="" style="shape=partialRectangle;connectable=0;fillColor=none;top=0;left=0;bottom=0;right=0;editable=1;overflow=hidden;" vertex="1" parent="LBTetcbzAzT7NRiAr88A-76">
          <mxGeometry width="30" height="30" as="geometry" />
        </mxCell>
        <mxCell id="LBTetcbzAzT7NRiAr88A-78" value="Movie movie" style="shape=partialRectangle;connectable=0;fillColor=none;top=0;left=0;bottom=0;right=0;align=left;spacingLeft=6;overflow=hidden;" vertex="1" parent="LBTetcbzAzT7NRiAr88A-76">
          <mxGeometry x="30" width="150" height="30" as="geometry" />
        </mxCell>
        <mxCell id="LBTetcbzAzT7NRiAr88A-79" value="" style="shape=partialRectangle;collapsible=0;dropTarget=0;pointerEvents=0;fillColor=none;top=0;left=0;bottom=0;right=0;points=[[0,0.5],[1,0.5]];portConstraint=eastwest;" vertex="1" parent="LBTetcbzAzT7NRiAr88A-72">
          <mxGeometry y="90" width="180" height="30" as="geometry" />
        </mxCell>
        <mxCell id="LBTetcbzAzT7NRiAr88A-80" value="" style="shape=partialRectangle;connectable=0;fillColor=none;top=0;left=0;bottom=0;right=0;editable=1;overflow=hidden;" vertex="1" parent="LBTetcbzAzT7NRiAr88A-79">
          <mxGeometry width="30" height="30" as="geometry" />
        </mxCell>
        <mxCell id="LBTetcbzAzT7NRiAr88A-81" value="Auditorium auditorium" style="shape=partialRectangle;connectable=0;fillColor=none;top=0;left=0;bottom=0;right=0;align=left;spacingLeft=6;overflow=hidden;" vertex="1" parent="LBTetcbzAzT7NRiAr88A-79">
          <mxGeometry x="30" width="150" height="30" as="geometry" />
        </mxCell>
        <mxCell id="LBTetcbzAzT7NRiAr88A-82" value="" style="shape=partialRectangle;collapsible=0;dropTarget=0;pointerEvents=0;fillColor=none;top=0;left=0;bottom=0;right=0;points=[[0,0.5],[1,0.5]];portConstraint=eastwest;" vertex="1" parent="LBTetcbzAzT7NRiAr88A-72">
          <mxGeometry y="120" width="180" height="30" as="geometry" />
        </mxCell>
        <mxCell id="LBTetcbzAzT7NRiAr88A-83" value="" style="shape=partialRectangle;connectable=0;fillColor=none;top=0;left=0;bottom=0;right=0;editable=1;overflow=hidden;" vertex="1" parent="LBTetcbzAzT7NRiAr88A-82">
          <mxGeometry width="30" height="30" as="geometry" />
        </mxCell>
        <mxCell id="LBTetcbzAzT7NRiAr88A-84" value="timeÂ " style="shape=partialRectangle;connectable=0;fillColor=none;top=0;left=0;bottom=0;right=0;align=left;spacingLeft=6;overflow=hidden;" vertex="1" parent="LBTetcbzAzT7NRiAr88A-82">
          <mxGeometry x="30" width="150" height="30" as="geometry" />
        </mxCell>
        <mxCell id="LBTetcbzAzT7NRiAr88A-85" value="JoinTable" style="swimlane;fontStyle=0;childLayout=stackLayout;horizontal=1;startSize=26;horizontalStack=0;resizeParent=1;resizeParentMax=0;resizeLast=0;collapsible=1;marginBottom=0;align=center;fontSize=14;" vertex="1" parent="1">
          <mxGeometry x="540" y="24" width="160" height="86" as="geometry" />
        </mxCell>
        <mxCell id="LBTetcbzAzT7NRiAr88A-86" value="reservationId" style="text;strokeColor=none;fillColor=none;spacingLeft=4;spacingRight=4;overflow=hidden;rotatable=0;points=[[0,0.5],[1,0.5]];portConstraint=eastwest;fontSize=12;" vertex="1" parent="LBTetcbzAzT7NRiAr88A-85">
          <mxGeometry y="26" width="160" height="30" as="geometry" />
        </mxCell>
        <mxCell id="LBTetcbzAzT7NRiAr88A-87" value="seatId" style="text;strokeColor=none;fillColor=none;spacingLeft=4;spacingRight=4;overflow=hidden;rotatable=0;points=[[0,0.5],[1,0.5]];portConstraint=eastwest;fontSize=12;" vertex="1" parent="LBTetcbzAzT7NRiAr88A-85">
          <mxGeometry y="56" width="160" height="30" as="geometry" />
        </mxCell>
        <mxCell id="LBTetcbzAzT7NRiAr88A-89" value="" style="edgeStyle=entityRelationEdgeStyle;fontSize=12;html=1;endArrow=ERoneToMany;entryX=0;entryY=0.5;entryDx=0;entryDy=0;" edge="1" parent="1" target="LBTetcbzAzT7NRiAr88A-18">
          <mxGeometry width="100" height="100" relative="1" as="geometry">
            <mxPoint x="210" y="150" as="sourcePoint" />
            <mxPoint x="310" y="50" as="targetPoint" />
          </mxGeometry>
        </mxCell>
        <mxCell id="LBTetcbzAzT7NRiAr88A-90" value="" style="edgeStyle=entityRelationEdgeStyle;fontSize=12;html=1;endArrow=ERoneToMany;entryX=0;entryY=0.5;entryDx=0;entryDy=0;" edge="1" parent="1" target="LBTetcbzAzT7NRiAr88A-86">
          <mxGeometry width="100" height="100" relative="1" as="geometry">
            <mxPoint x="480" y="165" as="sourcePoint" />
            <mxPoint x="570" y="120" as="targetPoint" />
          </mxGeometry>
        </mxCell>
        <mxCell id="LBTetcbzAzT7NRiAr88A-91" value="" style="edgeStyle=entityRelationEdgeStyle;fontSize=12;html=1;endArrow=ERoneToMany;" edge="1" parent="1" target="LBTetcbzAzT7NRiAr88A-87">
          <mxGeometry width="100" height="100" relative="1" as="geometry">
            <mxPoint x="770" y="130" as="sourcePoint" />
            <mxPoint x="860" y="85" as="targetPoint" />
          </mxGeometry>
        </mxCell>
        <mxCell id="LBTetcbzAzT7NRiAr88A-92" value="" style="edgeStyle=entityRelationEdgeStyle;fontSize=12;html=1;endArrow=ERoneToMany;exitX=1;exitY=0.5;exitDx=0;exitDy=0;" edge="1" parent="1" source="LBTetcbzAzT7NRiAr88A-73">
          <mxGeometry width="100" height="100" relative="1" as="geometry">
            <mxPoint x="420" y="305" as="sourcePoint" />
            <mxPoint x="290" y="140" as="targetPoint" />
          </mxGeometry>
        </mxCell>
        <mxCell id="LBTetcbzAzT7NRiAr88A-94" value="" style="edgeStyle=entityRelationEdgeStyle;fontSize=12;html=1;endArrow=ERoneToMany;entryX=0;entryY=0.5;entryDx=0;entryDy=0;" edge="1" parent="1" target="LBTetcbzAzT7NRiAr88A-76">
          <mxGeometry width="100" height="100" relative="1" as="geometry">
            <mxPoint x="290" y="365" as="sourcePoint" />
            <mxPoint x="380" y="320" as="targetPoint" />
          </mxGeometry>
        </mxCell>
        <mxCell id="LBTetcbzAzT7NRiAr88A-95" value="" style="edgeStyle=entityRelationEdgeStyle;fontSize=12;html=1;endArrow=ERoneToMany;entryX=1.011;entryY=0;entryDx=0;entryDy=0;exitX=0;exitY=0.5;exitDx=0;exitDy=0;entryPerimeter=0;" edge="1" parent="1" source="LBTetcbzAzT7NRiAr88A-47" target="LBTetcbzAzT7NRiAr88A-79">
          <mxGeometry width="100" height="100" relative="1" as="geometry">
            <mxPoint x="440" y="525" as="sourcePoint" />
            <mxPoint x="530" y="480" as="targetPoint" />
          </mxGeometry>
        </mxCell>
        <mxCell id="LBTetcbzAzT7NRiAr88A-96" value="" style="edgeStyle=entityRelationEdgeStyle;fontSize=12;html=1;endArrow=ERoneToMany;entryX=0;entryY=0.5;entryDx=0;entryDy=0;" edge="1" parent="1" source="LBTetcbzAzT7NRiAr88A-46">
          <mxGeometry width="100" height="100" relative="1" as="geometry">
            <mxPoint x="550" y="320" as="sourcePoint" />
            <mxPoint x="640" y="275" as="targetPoint" />
          </mxGeometry>
        </mxCell>
      </root>
    </mxGraphModel>
  </diagram>
</mxfile>
